<?xml version="1.0" encoding="UTF-8" standalone="no"?>
<svg
   viewBox="0 0 512 512.00001"
   version="1.1"
   id="svg11"
   sodipodi:docname="netbox-seeklogo.svg"
   width="512"
   height="512"
   inkscape:version="1.4.2 (ebf0e940d0, 2025-05-08)"
   inkscape:export-filename="netbox-seeklogo.jpg"
   inkscape:export-xdpi="96"
   inkscape:export-ydpi="96"
   xmlns:inkscape="http://www.inkscape.org/namespaces/inkscape"
   xmlns:sodipodi="http://sodipodi.sourceforge.net/DTD/sodipodi-0.dtd"
   xmlns="http://www.w3.org/2000/svg"
   xmlns:svg="http://www.w3.org/2000/svg">
  <defs
     id="defs11" />
  <sodipodi:namedview
     id="namedview11"
     pagecolor="#ffffff"
     bordercolor="#000000"
     borderopacity="0.25"
     inkscape:showpageshadow="2"
     inkscape:pageopacity="0.0"
     inkscape:pagecheckerboard="0"
     inkscape:deskcolor="#d1d1d1"
     showgrid="false"
     inkscape:zoom="0.43969185"
     inkscape:cx="-266.09545"
     inkscape:cy="444.62957"
     inkscape:window-width="1916"
     inkscape:window-height="990"
     inkscape:window-x="0"
     inkscape:window-y="88"
     inkscape:window-maximized="1"
     inkscape:current-layer="layer2"
     inkscape:export-bgcolor="#ffffff00" />
  <g
     inkscape:groupmode="layer"
     id="layer2"
     inkscape:label="Layer 1">
    <rect
       style="fill:#ffffff"
       id="rect12"
       width="525.36792"
       height="523.09363"
       x="-4.5486403"
       y="-2.2743201" />
  </g>
  <g
     fill="#9cc8f8"
     stroke="#9cc8f8"
     id="g6"
     transform="matrix(0.69504279,0,0,0.64295481,141.82733,98.082858)"
     sodipodi:insensitive="true">
    <ellipse
       cx="-7.2829275"
       cy="317.952"
       id="circle1"
       rx="32.854706"
       ry="33.378193"
       style="stroke-width:1.4398" />
    <ellipse
       cx="84.138855"
       cy="-40.500854"
       id="circle2"
       rx="32.854706"
       ry="33.378193"
       style="stroke-width:1.4398" />
    <ellipse
       cx="84.138855"
       cy="225.07344"
       id="circle3"
       rx="32.854706"
       ry="33.378193"
       style="stroke-width:1.4398" />
    <ellipse
       cx="345.5481"
       cy="225.07344"
       id="circle4"
       rx="32.854706"
       ry="33.378193"
       style="stroke-width:1.4398" />
    <rect
       x="72.711128"
       y="-40.500854"
       width="22.855448"
       height="261.22064"
       id="rect4"
       style="stroke-width:1.4398" />
    <rect
       x="84.138855"
       y="213.46364"
       width="257.12378"
       height="23.219612"
       id="rect5"
       style="stroke-width:1.4398" />
    <rect
       x="206.35979"
       y="86.41774"
       width="23.03825"
       height="129.59015"
       transform="matrix(0.70149608,0.71267331,-0.70149608,0.71267331,0,0)"
       id="rect6"
       style="stroke-width:1.43989" />
  </g>
  <g
     fill="#1685fc"
     stroke="#1685fc"
     id="g11"
     transform="matrix(0.69504279,0,0,0.64295481,-235.97186,296.95363)"
     sodipodi:insensitive="true">
    <ellipse
       cx="889.11047"
       cy="-349.80829"
       id="circle6"
       rx="32.854706"
       ry="33.378193"
       style="stroke-width:1.4398" />
    <ellipse
       cx="536.27954"
       cy="-256.92996"
       id="circle7"
       rx="32.854706"
       ry="33.378193"
       style="stroke-width:1.4398" />
    <ellipse
       cx="797.68872"
       cy="-256.92996"
       id="circle8"
       rx="32.854706"
       ry="33.378193"
       style="stroke-width:1.4398" />
    <ellipse
       cx="797.68872"
       cy="8.6443968"
       id="circle9"
       rx="32.854706"
       ry="33.378193"
       style="stroke-width:1.4398" />
    <rect
       x="536.27954"
       y="-268.5397"
       width="257.12378"
       height="23.219612"
       id="rect9"
       style="stroke-width:1.4398" />
    <rect
       x="786.26099"
       y="-256.92996"
       width="22.855448"
       height="261.22064"
       id="rect10"
       style="stroke-width:1.4398" />
    <rect
       x="-399.82382"
       y="737.30115"
       width="23.03825"
       height="129.59015"
       transform="matrix(-0.70149608,-0.71267331,0.70149608,-0.71267331,0,0)"
       id="rect11"
       style="stroke-width:1.43989" />
    <path
       d="m 378.67844,219.40764 v -96.00001 h 22.8 v 15.40001 h 0.4 q 3.4,-7.20001 10.4,-12.50001 7,-5.3 19,-5.3 v 0 q 9.6,0 16.3,3.2 6.7,3.2 10.9,8.4 4.2,5.20001 6,12.00001 1.8,6.8 1.8,14.2 v 0 60.6 h -24 v -48.6 q 0,-4 -0.4,-8.9 -0.4,-4.9 -2.1,-9.2 -1.7,-4.3 -5.3,-7.2 -3.6,-2.9 -9.8,-2.9 v 0 q -6,0 -10.1,2 -4.1,2 -6.8,5.4 -2.7,3.4 -3.9,7.8 -1.2,4.4 -1.2,9.2 v 0 52.4 z m 211.2,-39.6 h -73.2 q 1.2,10.8 8.4,16.8 7.2,6 17.4,6 v 0 q 9,0 15.1,-3.7 6.1,-3.7 10.7,-9.3 v 0 l 17.2,13 q -8.4,10.4 -18.8,14.8 -10.4,4.4 -21.8,4.4 v 0 q -10.8,0 -20.4,-3.6 -9.6,-3.6 -16.6,-10.2 -7,-6.6 -11.1,-15.9 -4.1,-9.3 -4.1,-20.7 v 0 q 0,-11.4 4.1,-20.7 4.1,-9.3 11.1,-15.90001 7,-6.6 16.6,-10.2 9.6,-3.6 20.4,-3.6 v 0 q 10,0 18.3,3.5 8.3,3.5 14.2,10.1 5.9,6.60001 9.2,16.30001 3.3,9.7 3.3,22.3 v 0 z m -73.2,-18 h 49.2 q -0.2,-10.6 -6.6,-16.7 -6.4,-6.1 -17.8,-6.1 v 0 q -10.8,0 -17.1,6.2 -6.3,6.2 -7.7,16.6 z m 108.2,-18 h -19.8 v -20.40001 h 19.8 V 95.607624 h 24 v 27.800006 h 26.4 v 20.40001 h -26.4 v 42 q 0,7.2 2.7,11.4 2.7,4.2 10.7,4.2 v 0 q 3.2,0 7,-0.7 3.8,-0.7 6,-2.3 v 0 20.2 q -3.8,1.8 -9.3,2.5 -5.5,0.7 -9.7,0.7 v 0 q -9.6,0 -15.7,-2.1 -6.1,-2.1 -9.6,-6.4 -3.5,-4.3 -4.8,-10.7 -1.3,-6.4 -1.3,-14.8 v 0 z m 73.4,75.6 V 68.207624 h 24 v 67.400006 h 0.6 q 1.8,-2.4 4.6,-4.9 2.8,-2.5 6.8,-4.7 4,-2.2 9.2,-3.6 5.2,-1.4 12,-1.4 v 0 q 10.2,0 18.8,3.9 8.6,3.9 14.7,10.7 6.1,6.80001 9.5,16.00001 3.4,9.2 3.4,19.8 v 0 q 0,10.6 -3.2,19.8 -3.2,9.2 -9.4,16 -6.2,6.8 -15,10.7 -8.8,3.9 -19.8,3.9 v 0 q -10.2,0 -19,-4 -8.8,-4 -14,-12.8 v 0 h -0.4 v 14.4 z m 79.6,-48 v 0 q 0,-5.6 -1.9,-10.8 -1.9,-5.2 -5.6,-9.2 -3.7,-4 -8.9,-6.4 -5.2,-2.4 -11.8,-2.4 v 0 q -6.6,0 -11.8,2.4 -5.2,2.4 -8.9,6.4 -3.7,4 -5.6,9.2 -1.9,5.2 -1.9,10.8 v 0 q 0,5.6 1.9,10.8 1.9,5.2 5.6,9.2 3.7,4 8.9,6.4 5.2,2.4 11.8,2.4 v 0 q 6.6,0 11.8,-2.4 5.2,-2.4 8.9,-6.4 3.7,-4 5.6,-9.2 1.9,-5.2 1.9,-10.8 z m 45.6,0 v 0 q 0,-11.4 4.1,-20.7 4.1,-9.3 11.1,-15.90001 7,-6.6 16.6,-10.2 9.6,-3.6 20.4,-3.6 v 0 q 10.8,0 20.4,3.6 9.6,3.6 16.6,10.2 7,6.60001 11.1,15.90001 4.1,9.3 4.1,20.7 v 0 q 0,11.4 -4.1,20.7 -4.1,9.3 -11.1,15.9 -7,6.6 -16.6,10.2 -9.6,3.6 -20.4,3.6 v 0 q -10.8,0 -20.4,-3.6 -9.6,-3.6 -16.6,-10.2 -7,-6.6 -11.1,-15.9 -4.1,-9.3 -4.1,-20.7 z m 24,0 v 0 q 0,5.6 1.9,10.8 1.9,5.2 5.6,9.2 3.7,4 8.9,6.4 5.2,2.4 11.8,2.4 v 0 q 6.6,0 11.8,-2.4 5.2,-2.4 8.9,-6.4 3.7,-4 5.6,-9.2 1.9,-5.2 1.9,-10.8 v 0 q 0,-5.6 -1.9,-10.8 -1.9,-5.2 -5.6,-9.2 -3.7,-4 -8.9,-6.4 -5.2,-2.4 -11.8,-2.4 v 0 q -6.6,0 -11.8,2.4 -5.2,2.4 -8.9,6.4 -3.7,4 -5.6,9.2 -1.9,5.2 -1.9,10.8 z m 93,48 38.6,-51.6 -33.2,-44.40001 h 29.2 l 19.20002,28.80001 20.80004,-28.80001 h 27.4 l -32.8,44.40001 38.6,51.6 h -29.2 l -25.00006,-34.4 -25.2,34.4 z"
       id="path11" />
  </g>
</svg>
